<svg id="Layer_1" data-name="Layer 1" xmlns="http://www.w3.org/2000/svg" xmlns:xlink="http://www.w3.org/1999/xlink" viewBox="0 0 6843.82 6538.69">
    <defs>
        <style>
            .cls-1
            {
            fill: currentColor;
            }
            .cls-2
            {
            fill: url(#radial-gradient);
            }
        </style>
    </defs>
    <g>
        <path class="cls-1" d="m4761.59,1743.78c-295.92-215.55-649.39-343.22-1014.73-366.89-323.93-20.98-652.37,39.33-946.53,177-354.72,166.01-645.9,441.5-840.93,780.28-31.77-18.79-63.54-37.58-95.31-56.36,209.58-339.8,513.13-614.24,878.56-777.08,296.18-131.98,624.17-188.81,947.54-166.38,388.79,26.97,764.15,169.43,1071.4,409.43Z"/>
        <path class="cls-1" d="m5124.75,2386.65c-155.9-251.94-369.11-464.93-626.63-612.5-284.74-163.17-614.28-242.8-942.03-231.06-368.32,13.19-726.6,142.33-1016.97,369.58-22.31-29.47-44.61-58.94-66.92-88.41,305.8-221.94,675.9-344.47,1053.69-349.64,326.35-4.47,652.88,78.1,935.91,241.18,277.34,159.8,503.92,393.71,662.95,670.86Z"/>
    </g>
    <g>
        <path class="cls-1" d="m1519.34,3155.13c3.3,366.09,111.46,726.01,310.21,1033.47,176.22,272.61,420.41,500.39,706.28,654.54,344.72,185.88,739.48,255.49,1127.75,210.17,3.85,36.71,7.7,73.41,11.55,110.12-397.76,34.24-799.05-45.92-1147.61-242.3-282.51-159.16-523.63-388.65-698.35-661.68-210.07-328.26-319.4-714.57-309.82-1104.33Z"/>
        <path class="cls-1" d="m1819.09,2480.36c-109.37,275.35-153.33,573.49-118.33,868.23,38.7,325.89,171.17,637.96,375.94,894.14,230.11,287.89,547.35,498.6,902.9,596.31-10.37,35.48-20.74,70.95-31.11,106.43-360.47-113.27-679.45-337.41-908.77-637.68-198.1-259.39-326.42-570.8-364.17-895.26-36.99-317.94,15.79-639.29,143.55-932.17Z"/>
    </g>
    <g>
        <path class="cls-1" d="m4665.95,4909.44c305.75-201.36,549.44-487.47,699.92-821.21,133.42-295.92,192.31-624.63,166.73-948.4-30.85-390.43-186.51-759.82-435.21-1061.41,28.75-23.14,57.5-46.29,86.25-69.44,244.54,315.58,394.88,696.18,418.99,1095.52,19.54,323.67-42.45,650.72-177.03,945.61-161.81,354.55-427.03,655.95-759.65,859.33Z"/>
        <path class="cls-1" d="m3936.49,5023.66c290.64-57.48,564.96-182.29,793.57-371.57,252.78-209.29,443.08-489.86,547.21-800.86,117.02-349.48,121.95-730.29,11.16-1081.99,35.43-10.53,70.85-21.07,106.28-31.6,100.39,364.27,85.13,753.83-42.72,1109.36-110.45,307.13-302.44,583.86-554.54,791.57-247.03,203.55-545.62,333.53-860.97,385.08Z"/>
    </g>
</svg>
